<?xml version="1.0" encoding="iso-8859-1"?>
<!-- Generator: Adobe Illustrator 24.0.3, SVG Export Plug-In . SVG Version: 6.00 Build 0)  -->
<svg version="1.1" xmlns="http://www.w3.org/2000/svg" xmlns:xlink="http://www.w3.org/1999/xlink" x="0px" y="0px"
	 viewBox="0 0 64 64" style="enable-background:new 0 0 64 64;" xml:space="preserve">
<g id="solar-panel-world">
	<path style="fill:#FEC500;" d="M62.007,48.007H32.245c-0.362,0-0.643-0.315-0.602-0.674l2.343-20.635
		c0.035-0.306,0.294-0.538,0.602-0.538H60.25c0.315,0,0.577,0.241,0.604,0.555l1.757,20.635
		C62.641,47.703,62.362,48.007,62.007,48.007z"/>
	<path style="fill:#FEC500;" d="M40.653,23.571h-5.759c-1.856,0-3.42,1.403-3.625,3.252l-2.631,23.584
		c-2.134,0.76-4.422,1.177-6.811,1.177c-11.211,0-20.339-9.121-20.339-20.332c0-11.218,9.128-20.339,20.339-20.339
		C30.327,10.913,37.628,16.153,40.653,23.571z"/>
	<path style="fill:#231F20;" d="M22.533,17.02c2.029-0.068,4.025-0.416,5.939-1.03c0.003,0.005,0.006,0.01,0.009,0.015
		c1.44,2.565,2.514,5.942,3.048,9.771c0.263-0.629,0.702-1.155,1.242-1.535c-0.585-3.376-1.586-6.351-2.901-8.741v-0.007
		c-0.001-0.002-0.002-0.003-0.003-0.005c0.982-0.391,1.935-0.852,2.854-1.385c0.004,0.003,0.009,0.005,0.013,0.008
		c3.523,2.244,6.3,5.547,7.893,9.457h1.571C39.121,15.428,31.309,9.589,22.137,9.458C22.027,9.45,21.91,9.45,21.801,9.45
		c-0.124,0-0.241,0-0.358,0.007C9.581,9.648,0,19.346,0,31.251c0,11.898,9.581,21.596,21.443,21.786
		c0.117,0.007,0.234,0.007,0.358,0.007c0.11,0,0.227,0,0.336-0.007c2.192-0.029,4.305-0.38,6.292-1.023l0.183-1.608
		c-0.585,0.212-1.177,0.395-1.783,0.548c0.702-0.629,1.359-1.381,1.973-2.244c0.102-0.146,0.205-0.292,0.3-0.446
		c-0.08-0.029-0.161-0.066-0.241-0.088l0.168-1.498l0.175-1.622c-0.227,0.504-0.475,0.987-0.731,1.44
		c-1.914-0.621-3.909-0.965-5.941-1.03V31.982h8.133l0.168-1.462h-8.301V17.02z M15.128,15.999c0.001-0.003,0.003-0.005,0.005-0.008
		c1.913,0.614,3.91,0.962,5.938,1.03v13.5h-9.363c0.102-5.766,1.403-10.933,3.42-14.514V15.999z M21.07,10.97c0,0,0.001,0,0.001,0
		v4.588c-1.752-0.063-3.478-0.347-5.14-0.847C17.399,12.59,19.158,11.24,21.07,10.97z M22.533,10.971
		c1.912,0.27,3.671,1.62,5.138,3.741c-1.662,0.5-3.387,0.784-5.138,0.847V10.971z M31.252,13.255
		c-0.699,0.367-1.421,0.685-2.155,0.968c-0.686-1.049-1.451-1.953-2.268-2.682C28.383,11.935,29.858,12.511,31.252,13.255z
		 M16.773,11.54c-0.816,0.729-1.582,1.633-2.267,2.682c-0.737-0.283-1.46-0.603-2.162-0.971c0,0,0,0,0,0
		C13.732,12.512,15.216,11.935,16.773,11.54z M10.875,14.106c0.002-0.001,0.003-0.002,0.005-0.003
		c0.919,0.533,1.874,0.995,2.856,1.386c-0.001,0.002-0.002,0.003-0.003,0.005v0.007c-2.083,3.786-3.391,9.062-3.486,15.019H1.484
		C1.717,23.628,5.408,17.599,10.875,14.106z M1.484,31.982h8.763c0.095,5.949,1.403,11.226,3.486,15.011
		c-0.979,0.387-1.937,0.855-2.858,1.396C5.408,44.903,1.717,38.874,1.484,31.982z M12.351,49.244
		c0.694-0.373,1.41-0.694,2.149-0.979c0.694,1.052,1.454,1.959,2.273,2.689C15.223,50.56,13.74,49.982,12.351,49.244z
		 M21.071,51.524c0,0-0.001,0-0.001,0c-1.915-0.27-3.676-1.622-5.145-3.749c1.659-0.497,3.391-0.789,5.145-0.848
		c0,0,0.001,0,0.001,0V51.524z M27.677,47.775c-1.469,2.126-3.23,3.478-5.144,3.749v-4.597
		C24.286,46.986,26.018,47.278,27.677,47.775z M21.071,45.466c0,0-0.001,0-0.001,0c-2.024,0.066-4.027,0.417-5.942,1.03
		c-2.017-3.574-3.318-8.741-3.42-14.514h9.363V45.466z M63.989,47.229l-2.276-20.425c-0.098-0.877-0.837-1.539-1.72-1.539H34.931
		c-0.883,0-1.622,0.662-1.72,1.539l-2.276,20.425c-0.055,0.489,0.102,0.979,0.43,1.345c0.328,0.366,0.798,0.577,1.29,0.577h10.583
		v1.951h-2.073v3.448H53.76v-3.448h-2.073v-1.951H62.27c0.492,0,0.962-0.21,1.29-0.577C63.887,48.208,64.044,47.718,63.989,47.229z
		 M61.362,36.843H55.05l-0.32-4.766h6.1L61.362,36.843z M55.099,37.574h6.344l0.531,4.766h-6.555L55.099,37.574z M60.261,26.966
		l0.488,4.38h-6.067l-0.31-4.619h5.622C60.131,26.727,60.246,26.83,60.261,26.966z M40.426,32.076h6.67v4.766h-6.99L40.426,32.076z
		 M47.097,37.574v4.766h-7.359l0.32-4.766H47.097z M40.476,31.345l0.31-4.619h6.311v4.619H40.476z M54.318,36.843h-6.49v-4.766
		h6.171L54.318,36.843z M53.949,31.345h-6.121v-4.619h5.812L53.949,31.345z M47.828,37.574h6.539l0.32,4.766h-6.859V37.574z
		 M34.931,26.727h5.122l-0.31,4.619h-5.568l0.488-4.38C34.679,26.83,34.794,26.727,34.931,26.727z M39.006,42.34H32.95l0.531-4.766
		h5.844L39.006,42.34z M33.563,36.843l0.531-4.766h5.6l-0.32,4.766H33.563z M32.454,47.6c-0.03-0.034-0.079-0.105-0.067-0.209
		l0.481-4.32h6.088l-0.31,4.619h-5.992C32.55,47.69,32.484,47.634,32.454,47.6z M39.38,47.69l0.31-4.619h7.408v4.619h-3.859H39.38z
		 M52.298,52.564v0.524h-9.672v-0.524h0.612h8.449H52.298z M50.225,51.102h-5.525v-1.951h5.525V51.102z M47.828,47.69v-4.619h6.908
		l0.31,4.619h-3.359H47.828z M62.47,47.6c-0.03,0.034-0.096,0.09-0.2,0.09h-6.492l-0.31-4.619h6.587l0.481,4.32
		C62.548,47.495,62.5,47.567,62.47,47.6z"/>
</g>
<g id="Layer_1">
</g>
</svg>
