<?xml version="1.0" encoding="iso-8859-1"?>
<!-- Generator: Adobe Illustrator 24.0.3, SVG Export Plug-In . SVG Version: 6.00 Build 0)  -->
<svg version="1.1" xmlns="http://www.w3.org/2000/svg" xmlns:xlink="http://www.w3.org/1999/xlink" x="0px" y="0px"
	 viewBox="0 0 64 64" style="enable-background:new 0 0 64 64;" xml:space="preserve">
<g id="battery">
	<path style="fill:#FEC500;" d="M18.713,7.02v55.087h26.57V7.02H18.713z M40.625,33.316L26.31,45.269
		c-0.18,0.151-0.397,0.217-0.614,0.217c-0.208,0-0.425-0.076-0.605-0.217c-0.35-0.293-0.435-0.794-0.208-1.191l4.224-7.398h-5.254
		c-0.387,0-0.737-0.236-0.879-0.595c-0.142-0.359-0.047-0.765,0.236-1.039l13.502-12.746c0.321-0.312,0.822-0.34,1.191-0.085
		c0.368,0.255,0.501,0.737,0.321,1.153l-3.638,8.277h5.433c0.397,0,0.746,0.246,0.888,0.624
		C41.041,32.636,40.927,33.061,40.625,33.316z"/>
	<path style="fill:#231F20;" d="M46.229,5.134h-7.788V0.945C38.441,0.423,38.019,0,37.496,0H26.504
		c-0.522,0-0.945,0.423-0.945,0.945v4.189h-7.788c-0.522,0-0.945,0.423-0.945,0.945v56.976c0,0.522,0.423,0.945,0.945,0.945h28.458
		c0.522,0,0.945-0.423,0.945-0.945V6.079C47.174,5.557,46.751,5.134,46.229,5.134z M27.449,1.89h9.103v3.244h-9.103V1.89z
		 M45.284,62.11H18.716V7.024h7.788h10.993h7.788V62.11z M36.71,22.298L23.207,35.05c-0.281,0.266-0.373,0.675-0.23,1.035
		c0.143,0.36,0.491,0.596,0.878,0.596h5.249l-4.224,7.394c-0.227,0.397-0.137,0.9,0.214,1.193c0.175,0.147,0.39,0.221,0.606,0.221
		c0.215,0,0.43-0.073,0.605-0.22l14.317-11.958c0.305-0.255,0.419-0.674,0.283-1.047c-0.136-0.374-0.491-0.623-0.889-0.623h-5.43
		l3.637-8.277c0.18-0.412,0.046-0.893-0.321-1.152C37.536,21.955,37.038,21.989,36.71,22.298z M32.275,32.206
		c-0.128,0.293-0.101,0.629,0.075,0.897c0.174,0.267,0.472,0.428,0.791,0.428h4.272l-8.286,6.92l2.426-4.246
		c0.167-0.293,0.166-0.651-0.003-0.943c-0.17-0.292-0.481-0.471-0.818-0.471h-4.499l8.387-7.92L32.275,32.206z"/>
</g>
<g id="Layer_1">
</g>
</svg>
