<?xml version="1.0" encoding="iso-8859-1"?>
<!-- Generator: Adobe Illustrator 24.0.3, SVG Export Plug-In . SVG Version: 6.00 Build 0)  -->
<svg version="1.1" id="Layer_1" xmlns="http://www.w3.org/2000/svg" xmlns:xlink="http://www.w3.org/1999/xlink" x="0px" y="0px"
	 viewBox="0 0 64 64" style="enable-background:new 0 0 64 64;" xml:space="preserve">
<g id="panel-cog">
	<path style="fill:#FEC500;" d="M3.077,0.954v46.409l9.402,2c0-10.446,8.711-18.915,19.458-18.915
		c10.746,0,19.458,8.468,19.458,18.915l10.402-2V0.954C61.797,0.954,3.077,0.954,3.077,0.954z"/>
	<path style="fill:#231F20;" d="M59.254,0H4.746c-1.81,0-3.272,1.473-3.272,3.272v43.076c0,1.8,1.462,3.272,3.272,3.272h8.716
		c-0.011-0.338-0.022-0.687-0.022-1.025c0-0.393,0.011-0.774,0.033-1.156H4.746c-0.6,0-1.091-0.491-1.091-1.091v-9.261h13.079v0.971
		c0.218-0.338,0.469-0.654,0.72-0.971c0.447-0.578,0.938-1.123,1.462-1.647c0.185-0.185,0.371-0.36,0.567-0.534h-0.567V26.18h11.999
		v3.893c0.36-0.022,0.731-0.033,1.091-0.033c0.371,0,0.731,0.011,1.091,0.033V26.18h11.999v8.726h-0.567
		c0.196,0.175,0.382,0.349,0.567,0.534c0.513,0.524,1.004,1.069,1.462,1.647c0.251,0.316,0.491,0.633,0.72,0.971v-0.971h13.068
		v9.261c0,0.6-0.491,1.091-1.091,1.091h-8.726c0.022,0.382,0.033,0.764,0.033,1.156c0,0.338-0.011,0.687-0.022,1.025h8.715
		c1.811,0,3.272-1.473,3.272-3.272V3.272C62.526,1.473,61.064,0,59.254,0z M60.344,3.272V12H47.277V2.182h11.977
		C59.854,2.182,60.344,2.672,60.344,3.272z M60.344,14.181v9.817H47.277v-9.817C47.277,14.181,60.344,14.181,60.344,14.181z
		 M33.096,2.182h11.999V12H33.096V2.182z M30.915,12H18.916V2.182h11.999V12z M4.746,2.182h11.988V12H3.656V3.272
		C3.656,2.672,4.146,2.182,4.746,2.182z M16.734,14.181v9.817H3.656v-9.817C3.656,14.181,16.734,14.181,16.734,14.181z
		 M16.734,34.906H3.656V26.18h13.079v8.726H16.734z M18.916,23.998v-9.817h11.999v9.817H18.916z M33.096,23.998v-9.817h11.999v9.817
		H33.096z M47.277,34.906V26.18h13.068v8.726H47.277z M43.139,41.684l1.866-1.866l-4.226-4.226l-1.866,1.866
		c-1.208-0.749-2.54-1.301-3.924-1.625v-2.64h-5.976v2.64c-1.385,0.324-2.716,0.876-3.924,1.625l-1.866-1.866l-4.226,4.226
		l1.865,1.866c-0.749,1.209-1.3,2.54-1.624,3.924h-2.64v5.976h2.64c0.325,1.384,0.876,2.716,1.624,3.924l-1.865,1.866l4.226,4.226
		l1.866-1.866c1.208,0.749,2.54,1.3,3.924,1.624V64h5.976v-2.64c1.386-0.324,2.717-0.876,3.924-1.624l1.866,1.866l4.226-4.226
		l-1.866-1.866c0.75-1.208,1.301-2.54,1.626-3.924h2.64V45.61h-2.64C44.439,44.224,43.889,42.892,43.139,41.684z M45.222,49.404
		h-2.286l-0.146,0.92c-0.267,1.684-0.938,3.303-1.94,4.683l-0.546,0.754l1.616,1.616l-1.141,1.141l-1.616-1.615L38.41,57.45
		c-1.378,1-2.998,1.67-4.684,1.938l-0.919,0.146v2.286h-1.613v-2.286l-0.919-0.146c-1.685-0.267-3.304-0.937-4.684-1.938
		l-0.753-0.546l-1.616,1.615l-1.141-1.141l1.615-1.616l-0.546-0.753c-1-1.38-1.671-3-1.939-4.683l-0.146-0.92h-2.286v-0.569h0.137
		V47.79h2.149l0.146-0.92c0.267-1.684,0.938-3.303,1.939-4.683l0.546-0.753l-1.615-1.615l1.141-1.141l1.616,1.615l0.753-0.547
		c1.379-1,2.999-1.671,4.684-1.938l0.919-0.146v-2.286h1.613v2.286l0.919,0.146c1.685,0.267,3.304,0.938,4.684,1.938l0.753,0.547
		l1.616-1.615l1.141,1.141l-1.616,1.615l0.546,0.754c1.001,1.379,1.671,2.999,1.94,4.683l0.146,0.92h2.286V49.404z M32.001,40.089
		c-4.691,0-8.508,3.817-8.508,8.508s3.817,8.507,8.508,8.507s8.508-3.816,8.508-8.507S36.692,40.089,32.001,40.089z M32.001,54.923
		c-3.489,0-6.326-2.838-6.326-6.326c0-3.489,2.838-6.326,6.326-6.326c3.489,0,6.326,2.838,6.326,6.326S35.489,54.923,32.001,54.923z
		"/>
</g>
<g id="Layer_1_1_">
</g>
</svg>
