<?xml version="1.0" encoding="iso-8859-1"?>
<!-- Generator: Adobe Illustrator 24.0.3, SVG Export Plug-In . SVG Version: 6.00 Build 0)  -->
<svg version="1.1" xmlns="http://www.w3.org/2000/svg" xmlns:xlink="http://www.w3.org/1999/xlink" x="0px" y="0px"
	 viewBox="0 0 64 64" style="enable-background:new 0 0 64 64;" xml:space="preserve">
<g id="two-panel-sun">
	<path style="fill:#FEC500;" d="M51.544,29.955l-19.87,19.87l-1.148-1.148l19.87-19.87L51.544,29.955z M30.69,24.874L2.954,52.61
		l1.148,1.148l27.736-27.736L30.69,24.874z M13.228,9.425c-4.2,0-7.622,3.422-7.622,7.622c0,4.208,3.422,7.622,7.622,7.622
		c4.208,0,7.63-3.414,7.63-7.622C20.858,12.847,17.436,9.425,13.228,9.425z"/>
	<path style="fill:#231F20;" d="M50.398,58.609V47.99c0-0.204-0.079-0.4-0.221-0.547l-6.832-7.06l9.868-9.868
		c0.307-0.307,0.307-0.805,0-1.112l-2.26-2.261c-0.147-0.147-0.347-0.23-0.556-0.23c-0.209,0-0.409,0.083-0.556,0.23L28.858,48.124
		c-0.307,0.307-0.307,0.805,0,1.112l2.261,2.261c0.147,0.147,0.347,0.23,0.556,0.23s0.409-0.083,0.556-0.23l10.001-10.001
		l6.593,6.812v10.301H26.799V47.99c0-0.204-0.079-0.4-0.221-0.547l-6.852-7.081l13.781-13.781c0.307-0.307,0.307-0.805,0-1.112
		l-2.261-2.261c-0.307-0.307-0.805-0.307-1.112,0L1.286,52.057c-0.307,0.307-0.307,0.805,0,1.112l2.261,2.261
		c0.154,0.154,0.355,0.23,0.556,0.23c0.201,0,0.403-0.077,0.556-0.23l13.955-13.955l6.612,6.833v10.301H7.348v1.573H64v-1.573
		H50.398z M31.675,49.828l-1.148-1.148l19.87-19.87l1.148,1.148L31.675,49.828z M4.103,53.761l-1.148-1.148L30.69,24.877
		l1.148,1.148L4.103,53.761z M22.428,17.048c0-5.072-4.126-9.197-9.197-9.197s-9.198,4.126-9.198,9.197s4.127,9.198,9.198,9.198
		S22.428,22.119,22.428,17.048z M13.231,24.673c-4.204,0-7.625-3.421-7.625-7.625s3.421-7.624,7.625-7.624s7.624,3.42,7.624,7.624
		S17.435,24.673,13.231,24.673z M26.461,17.834h-3.463v-1.573h3.463V17.834z M12.444,26.816h1.573v3.463h-1.573V26.816z
		 M14.018,7.28h-1.573V3.817h1.573V7.28z M3.463,17.834H0v-1.573h3.463V17.834z M5.767,10.697L3.319,8.249l1.112-1.112L6.88,9.585
		L5.767,10.697z M22.031,26.96l-2.449-2.448l1.112-1.112l2.449,2.448L22.031,26.96z M5.767,23.399l1.112,1.112L4.432,26.96
		l-1.112-1.112L5.767,23.399z M20.694,10.697l-1.112-1.112l2.449-2.448l1.112,1.112L20.694,10.697z"/>
</g>
<g id="Layer_1">
</g>
</svg>
