<?xml version="1.0" encoding="iso-8859-1"?>
<!-- Generator: Adobe Illustrator 24.0.3, SVG Export Plug-In . SVG Version: 6.00 Build 0)  -->
<svg version="1.1" xmlns="http://www.w3.org/2000/svg" xmlns:xlink="http://www.w3.org/1999/xlink" x="0px" y="0px"
	 viewBox="0 0 64 64" style="enable-background:new 0 0 64 64;" xml:space="preserve">
<g id="solar-house">
	<path style="fill:#FEC500;" d="M59.393,18.056c0,3.457-2.804,6.268-6.261,6.268c-3.45,0-6.261-2.811-6.261-6.268
		c0-3.451,2.811-6.261,6.261-6.261C56.588,11.794,59.393,14.605,59.393,18.056z M34.58,35.754l-0.019,0.032l-0.045-0.032H28.81
		V55.52h23.074V35.754H34.58z M27.517,35.444V55.52H1.29V35.437l12.82-9.583L27.517,35.444z M18.452,44.419
		c-0.103-0.239-0.336-0.394-0.594-0.394h-3.05l2.132-6.067c0.103-0.291-0.019-0.62-0.291-0.775c-0.271-0.155-0.614-0.09-0.814,0.149
		l-7.773,9.195c-0.168,0.194-0.2,0.459-0.097,0.691c0.11,0.226,0.336,0.368,0.588,0.368h2.953l-2.481,5.441
		c-0.129,0.284-0.032,0.627,0.226,0.801c0.11,0.078,0.239,0.11,0.362,0.11c0.174,0,0.342-0.065,0.472-0.194l8.239-8.626
		C18.503,44.929,18.555,44.652,18.452,44.419z"/>
	<path style="fill:#231F20;" d="M53.205,34.47l-7.475-5.174v-0.013h-0.018l-6.876-4.759c-0.108-0.075-0.236-0.115-0.368-0.115
		H14.102v0.001c-0.136,0-0.272,0.042-0.387,0.127L0.259,34.593C0.096,34.715,0,34.907,0,35.111v21.053
		c0,0.357,0.289,0.646,0.646,0.646h27.412h0.108h24.366c0.357,0,0.646-0.289,0.646-0.646V35.111h-0.037v-0.55L53.205,34.47z
		 M34.922,34.465l-2.098-1.452h3.821l2.098,1.452H34.922z M22.933,30.576h4.099l1.654,1.145h-4.152L22.933,30.576z M40.87,31.72
		h-3.821l-1.654-1.145h3.821L40.87,31.72z M41.487,30.576h3.821l1.654,1.145h-3.821L41.487,30.576z M33.528,29.283l-1.653-1.144
		h3.821l1.653,1.144H33.528z M31.257,29.283h-3.821l-1.653-1.144h3.82L31.257,29.283z M30.008,26.847l-1.654-1.145h3.821
		l1.654,1.145H30.008z M27.737,26.847h-3.82l-1.654-1.145h3.82L27.737,26.847z M21.645,26.847h-3.927l-1.601-1.145h3.875
		L21.645,26.847z M23.512,28.139l1.653,1.144h-4.017V29.3l-1.623-1.16H23.512z M29.304,30.576h3.821l1.654,1.145h-3.821
		L29.304,30.576z M41.014,34.465l-2.098-1.452h3.821l2.098,1.452H41.014z M47.106,34.465l-2.098-1.452h3.821l2.098,1.452H47.106z
		 M39.619,29.283l-1.653-1.144h3.82l1.653,1.144H39.619z M39.92,26.847h-3.82l-1.654-1.145h3.82L39.92,26.847z M27.52,55.518H1.292
		V35.435l12.818-9.578l13.41,9.587V55.518z M26.342,33.013h4.211l2.098,1.452h-4.278L26.342,33.013z M28.812,55.518V35.757h5.706
		l0.04,0.028l0.019-0.028h17.308v19.761H28.812z M7.966,47.214c0.106,0.228,0.335,0.374,0.586,0.374h2.955l-2.48,5.437
		c-0.131,0.287-0.036,0.627,0.225,0.803c0.11,0.074,0.237,0.111,0.362,0.111c0.172,0,0.342-0.068,0.467-0.199l8.243-8.623
		c0.179-0.187,0.229-0.463,0.127-0.7c-0.102-0.238-0.335-0.392-0.594-0.392H14.81l2.127-6.065c0.103-0.294-0.019-0.62-0.289-0.775
		c-0.271-0.155-0.613-0.094-0.814,0.144l-7.775,9.196C7.896,46.717,7.86,46.985,7.966,47.214z M14.557,40.84l-1.269,3.616
		c-0.069,0.198-0.038,0.416,0.083,0.587c0.121,0.171,0.318,0.273,0.527,0.273h2.448l-4.557,4.767l1.311-2.874
		c0.091-0.2,0.074-0.433-0.044-0.618c-0.119-0.185-0.324-0.297-0.544-0.297H9.944L14.557,40.84z M60.687,18.058
		c0-4.166-3.39-7.556-7.556-7.556c-4.166,0-7.555,3.39-7.555,7.556s3.39,7.556,7.555,7.556
		C57.298,25.613,60.687,22.224,60.687,18.058z M46.869,18.058c0-3.454,2.81-6.263,6.263-6.263c3.454,0,6.263,2.81,6.263,6.263
		s-2.81,6.263-6.263,6.263C49.678,24.321,46.869,21.511,46.869,18.058z M53.778,10.034h-1.292V7.19h1.292V10.034z M45.108,18.704
		h-2.845v-1.292h2.845V18.704z M52.486,26.082h1.292v2.845h-1.292V26.082z M64,17.412v1.292h-2.844v-1.292H64z M59.262,12.841
		l-0.914-0.914l2.011-2.012l0.914,0.914L59.262,12.841z M59.262,23.275l2.011,2.011L60.36,26.2l-2.011-2.011L59.262,23.275z
		 M47.001,12.841l-2.011-2.012l0.914-0.914l2.011,2.012L47.001,12.841z M47.001,23.275l0.914,0.914L45.903,26.2l-0.914-0.914
		L47.001,23.275z"/>
</g>
<g id="Layer_1">
</g>
</svg>
