<?xml version="1.0" encoding="iso-8859-1"?>
<!-- Generator: Adobe Illustrator 24.0.3, SVG Export Plug-In . SVG Version: 6.00 Build 0)  -->
<svg version="1.1" xmlns="http://www.w3.org/2000/svg" xmlns:xlink="http://www.w3.org/1999/xlink" x="0px" y="0px"
	 viewBox="0 0 64 64" style="enable-background:new 0 0 64 64;" xml:space="preserve">
<g id="wrench-panel">
	<path style="fill:#FEC500;" d="M1.918,6.437v45.105h14.085c-0.495-1.535-0.768-3.169-0.768-4.869
		c0-8.764,7.105-15.869,15.869-15.869c8.764,0,15.869,7.105,15.869,15.869c0,1.7-0.274,3.334-0.768,4.869h15.794V6.437H1.918z"/>
	<path style="fill:#231F20;" d="M64,9.376c0-2.161-1.757-3.918-3.918-3.918H45.279c-1.169,0-2.22,0.515-2.939,1.329
		c-0.718-0.815-1.77-1.329-2.939-1.329H24.599c-1.169,0-2.22,0.515-2.939,1.329c-0.718-0.815-1.77-1.329-2.939-1.329H3.918
		C1.757,5.457,0,7.215,0,9.376v5.409c0,1.176,0.531,2.22,1.354,2.939C0.531,18.443,0,19.487,0,20.663v5.409
		c0,1.164,0.52,2.199,1.328,2.918C0.52,29.708,0,30.743,0,31.907v5.409c0,1.176,0.531,2.22,1.354,2.939
		C0.531,40.974,0,42.018,0,43.194v5.409c0,2.161,1.757,3.918,3.918,3.918h12.485c-0.252-0.634-0.457-1.289-0.627-1.959H6.857v-9.327
		h8.926v1.524c0.416-1.635,1.08-3.168,1.959-4.556V29.99h0.98c0.069,0,0.134-0.019,0.202-0.022c0.984,0.103,1.757,0.927,1.757,1.939
		v2.857c0.614-0.54,1.267-1.032,1.959-1.473v-1.384c0-1.011,0.773-1.836,1.757-1.939c0.069,0.004,0.133,0.022,0.202,0.022h0.98
		v1.837c0.636-0.239,1.288-0.44,1.959-0.596V29.99h8.925v1.746c0.675,0.24,1.33,0.519,1.959,0.844v-2.59h0.98
		c0.069,0,0.134-0.019,0.202-0.022c0.984,0.103,1.757,0.927,1.757,1.939v2.63c0.708,0.597,1.365,1.253,1.959,1.963v-4.593
		c0-1.011,0.773-1.836,1.757-1.939c0.069,0.004,0.133,0.022,0.202,0.022h0.98v9.285h-0.98c-0.036,0-0.069-0.009-0.104-0.011
		c0.334,0.631,0.616,1.292,0.863,1.97h0.221v0.603c0.488,1.525,0.756,3.148,0.756,4.835c0,2.068-0.407,4.037-1.127,5.849h14.194
		c2.161,0,3.918-1.758,3.918-3.918v-5.409c0-1.176-0.531-2.22-1.354-2.939C63.469,39.536,64,38.492,64,37.316v-5.409
		c0-1.164-0.52-2.199-1.328-2.918C63.48,28.271,64,27.236,64,26.072v-5.409c0-1.176-0.531-2.22-1.354-2.939
		C63.469,17.005,64,15.961,64,14.785V9.376z M4.898,50.562h-0.98c-1.08,0-1.959-0.879-1.959-1.959v-5.409
		c0-1.081,0.879-1.959,1.959-1.959h0.98V50.562z M4.898,39.276h-0.98c-1.08,0-1.959-0.879-1.959-1.959v-5.409
		c0-1.008,0.769-1.831,1.749-1.938c0.071,0.004,0.138,0.021,0.21,0.021h0.98V39.276z M4.898,27.989h-0.98
		c-0.072,0-0.139,0.017-0.21,0.021c-0.98-0.107-1.749-0.93-1.749-1.938v-5.409c0-1.081,0.879-1.959,1.959-1.959h0.98V27.989z
		 M4.898,16.745h-0.98c-1.08,0-1.959-0.879-1.959-1.959V9.376c0-1.081,0.879-1.959,1.959-1.959h0.98V16.745z M15.783,39.276H6.857
		V29.99h8.926V39.276z M15.783,27.989H6.857v-9.285h8.926V27.989z M15.783,16.745H6.857V7.417h8.926V16.745z M20.681,26.072
		c0,1.011-0.773,1.836-1.757,1.939c-0.069-0.004-0.133-0.022-0.202-0.022h-0.98v-9.285h0.98c1.08,0,1.959,0.879,1.959,1.959V26.072z
		 M20.681,14.785c0,1.081-0.879,1.959-1.959,1.959h-0.98V7.417h0.98c1.08,0,1.959,0.879,1.959,1.959V14.785z M21.661,29.318
		c-0.107-0.121-0.235-0.221-0.356-0.328c0.121-0.107,0.249-0.207,0.356-0.328c0.107,0.121,0.235,0.221,0.356,0.328
		C21.896,29.097,21.767,29.196,21.661,29.318z M21.661,18.074c-0.114-0.129-0.249-0.236-0.379-0.35
		c0.13-0.113,0.265-0.221,0.379-0.35c0.114,0.129,0.249,0.236,0.379,0.35C21.91,17.837,21.774,17.945,21.661,18.074z M25.579,27.989
		h-0.98c-0.069,0-0.134,0.019-0.202,0.022c-0.984-0.103-1.757-0.927-1.757-1.939v-5.409c0-1.081,0.879-1.959,1.959-1.959h0.98
		V27.989z M25.579,16.745h-0.98c-1.08,0-1.959-0.879-1.959-1.959V9.376c0-1.081,0.879-1.959,1.959-1.959h0.98V16.745z
		 M36.463,27.989h-8.925v-9.285h8.925V27.989z M36.463,16.745h-8.925V7.417h8.925V16.745z M41.361,26.072
		c0,1.011-0.773,1.836-1.757,1.939c-0.069-0.004-0.133-0.022-0.202-0.022h-0.98v-9.285h0.98c1.08,0,1.959,0.879,1.959,1.959V26.072z
		 M41.361,14.785c0,1.081-0.879,1.959-1.959,1.959h-0.98V7.417h0.98c1.08,0,1.959,0.879,1.959,1.959V14.785z M42.34,29.318
		c-0.107-0.121-0.235-0.221-0.356-0.328c0.121-0.107,0.249-0.207,0.356-0.328c0.107,0.121,0.235,0.221,0.356,0.328
		C42.576,29.097,42.447,29.196,42.34,29.318z M42.34,18.074c-0.114-0.129-0.249-0.236-0.379-0.35c0.13-0.113,0.265-0.221,0.379-0.35
		c0.114,0.129,0.249,0.236,0.379,0.35C42.59,17.837,42.454,17.945,42.34,18.074z M46.259,27.989h-0.98
		c-0.069,0-0.134,0.019-0.202,0.022c-0.984-0.103-1.757-0.927-1.757-1.939v-5.409c0-1.081,0.879-1.959,1.959-1.959h0.98V27.989z
		 M46.259,16.745h-0.98c-1.08,0-1.959-0.879-1.959-1.959V9.376c0-1.081,0.879-1.959,1.959-1.959h0.98V16.745z M57.143,50.562h-8.925
		v-9.327h8.925V50.562z M57.143,39.276h-8.925V29.99h8.925V39.276z M57.143,27.989h-8.925v-9.285h8.925V27.989z M57.143,16.745
		h-8.925V7.417h8.925V16.745z M62.041,48.603c0,1.081-0.879,1.959-1.959,1.959h-0.98v-9.327h0.98c1.08,0,1.959,0.879,1.959,1.959
		V48.603z M62.041,37.316c0,1.081-0.879,1.959-1.959,1.959h-0.98V29.99h0.98c0.072,0,0.139-0.017,0.21-0.021
		c0.98,0.107,1.749,0.93,1.749,1.938V37.316z M62.041,26.072c0,1.008-0.769,1.831-1.749,1.938c-0.071-0.004-0.138-0.021-0.21-0.021
		h-0.98v-9.285h0.98c1.08,0,1.959,0.879,1.959,1.959V26.072z M62.041,14.785c0,1.081-0.879,1.959-1.959,1.959h-0.98V7.417h0.98
		c1.08,0,1.959,0.879,1.959,1.959V14.785z M23.882,58.543c-0.251,0-0.501-0.096-0.693-0.287l-3.323-3.323
		c-0.383-0.383-0.383-1.003,0-1.385l6.733-6.733c-1.298-3.167-0.585-6.814,1.872-9.272c2.296-2.295,5.642-3.09,8.727-2.083
		c0.324,0.106,0.569,0.372,0.649,0.704c0.079,0.331-0.019,0.68-0.26,0.92l-4.032,4.032l3.458,3.459l4.032-4.033
		c0.24-0.242,0.591-0.341,0.921-0.26c0.331,0.08,0.598,0.326,0.703,0.65c1.004,3.086,0.204,6.427-2.088,8.72l0,0
		c-2.457,2.454-6.103,3.169-9.277,1.877l-6.729,6.728C24.383,58.447,24.132,58.543,23.882,58.543z M21.944,54.24l1.938,1.938
		l6.517-6.516c0.301-0.301,0.761-0.371,1.137-0.181c2.553,1.299,5.634,0.809,7.66-1.215l0,0c1.354-1.354,2.033-3.182,1.929-5.033
		l-3.419,3.42c-0.367,0.367-1.018,0.367-1.385,0l-4.844-4.844c-0.383-0.383-0.383-1.003,0-1.385L34.898,37
		c-1.846-0.111-3.685,0.571-5.042,1.927c-2.027,2.028-2.514,5.103-1.211,7.653c0.193,0.378,0.121,0.838-0.18,1.138L21.944,54.24z"/>
</g>
<g id="Layer_1">
</g>
</svg>
